<?xml version="1.0" standalone="no"?><!DOCTYPE svg PUBLIC "-//W3C//DTD SVG 1.1//EN" "http://www.w3.org/Graphics/SVG/1.1/DTD/svg11.dtd"><svg class="icon" width="16px" height="16.00px" viewBox="0 0 1024 1024" version="1.1" xmlns="http://www.w3.org/2000/svg"><path fill="#E7637A" d="M457.387 152.462V409.6c0 38.684-29.583 68.267-65.991 68.267H147.91c-36.409 0-65.991-29.583-65.991-68.267V152.462c0-38.684 29.582-68.266 65.991-68.266h245.76c34.133 0 63.716 31.857 63.716 68.266z m147.91 325.405h245.76c36.41 0 65.992-29.583 65.992-68.267V152.462c0-38.684-29.582-68.266-65.991-68.266h-245.76c-36.41 0-65.991 29.582-65.991 68.266V409.6c2.275 36.409 29.582 68.267 65.99 68.267z m-213.901 68.266H147.91c-36.409 0-65.991 31.858-65.991 68.267v254.862c0 38.685 29.582 68.267 65.991 68.267h245.76c36.409 0 65.991-29.582 65.991-68.267V614.4c-2.275-36.409-31.858-68.267-68.266-68.267z m466.488 0H614.4c-36.409 0-65.991 31.858-65.991 68.267v254.862c0 38.685 29.582 68.267 65.991 68.267h245.76c36.409 0 65.991-29.582 65.991-68.267V614.4c-2.275-36.409-31.858-68.267-68.267-68.267z" /></svg>