<?xml version="1.0" standalone="no"?><!DOCTYPE svg PUBLIC "-//W3C//DTD SVG 1.1//EN" "http://www.w3.org/Graphics/SVG/1.1/DTD/svg11.dtd"><svg class="icon" width="16px" height="16.00px" viewBox="0 0 1024 1024" version="1.1" xmlns="http://www.w3.org/2000/svg"><path fill="#E7637A" d="M801.6 921.2m-55.8 0a55.8 55.8 0 1 0 111.6 0 55.8 55.8 0 1 0-111.6 0Z"  /><path fill="#E7637A" d="M411 921.2m-55.8 0a55.8 55.8 0 1 0 111.6 0 55.8 55.8 0 1 0-111.6 0Z"  /><path fill="#E7637A" d="M994.4 201.7c-28.3-38-71.8-59.8-119.2-59.8H360.8c-20.5 0-37.1 16.6-37.1 37.1s16.6 37.1 37.1 37.1h514.5c23.8 0 45.6 10.9 59.8 30 14.2 19.1 18.5 43.1 11.7 65.9l-69.3 234.9c-7.9 26.7-32.9 45.3-60.8 45.3H474.3c-20.5 0-37.1 16.6-37.1 37.1s16.6 37.1 37.1 37.1h342.3c60.4 0 114.6-40.4 131.8-98.4l69.3-234.9c13.5-45.6 5-93.4-23.3-131.4z"  /><path fill="#E7637A" d="M849.9 781.7c0-20.5-16.6-37.1-37.1-37.1H377.3L193.7 124.4C180.2 78.8 137.6 47 90 47H37C16.6 47 0 63.6 0 84s16.6 37.1 37.1 37.1h53c15 0 28.4 10 32.6 24.3l191.4 646.8c4.7 15.7 19.1 26.5 35.5 26.5h463.2c20.5 0 37.1-16.6 37.1-37z"  /></svg>