<?xml version="1.0" standalone="no"?><!DOCTYPE svg PUBLIC "-//W3C//DTD SVG 1.1//EN" "http://www.w3.org/Graphics/SVG/1.1/DTD/svg11.dtd"><svg class="icon" width="16px" height="16.00px" viewBox="0 0 1024 1024" version="1.1" xmlns="http://www.w3.org/2000/svg"><path fill="#2c2c2c" d="M931.074076 452.121238 591.533916 100.961436c-21.10569-21.793352-49.306986-33.812083-79.535451-33.812083-30.229488 0-58.430784 12.019755-79.536474 33.812083L92.924901 452.121238c-35.044144 36.274158-30.53648 67.589374-24.744567 80.658018 4.126994 9.3039 18.064424 34.82618 58.21282 34.82618l49.777707 0 0 270.176372c0 61.32674 44.329625 119.066793 107.320261 119.066793l57.127092 0 87.428212 0 0-63.461357L428.046425 670.926616c0-30.626531-4.670369-47.714721 26.825972-47.714721l57.127092 0 57.126069 0c31.514761 0 26.825972 17.08819 26.825972 47.714721l0 222.462674 0 63.461357 87.429235 0 57.126069 0c62.992683 0 107.321284-57.741076 107.321284-119.066793L847.828117 567.605436l49.777707 0c40.148395 0 54.085826-25.52228 58.21282-34.82618C961.610556 519.710612 966.117197 488.395396 931.074076 452.121238zM897.6048 512l-42.863227 0-28.562523 0L791.858384 512l0 325.782831c0 30.625508-19.874653 63.461357-51.352575 63.461357l-88.568175 0L651.937634 670.926616c0-61.32674-19.803022-103.32118-82.813101-103.32118l-57.126069 0-57.127092 0c-63.010079 0-82.812077 41.99444-82.812077 103.32118l0 230.316549-88.568175 0c-31.477922 0-51.352575-32.835849-51.352575-63.461357L232.138546 512l-34.337039 0-28.545126 0-42.863227 0c-0.978281 0-1.882883-3.837398-2.697435-3.874237 1.937119-3.366677 5.266957-11.910261 10.824533-17.630542l339.574952-350.942861c10.136871-10.498098 24.453948-16.942881 38.338167-16.797571 13.882172-0.145309 27.331485 6.299473 37.468356 16.797571l339.575975 350.942861c5.556553 5.720282 8.887414 14.263865 10.82351 17.630542C899.487683 508.162602 898.582057 512 897.6048 512z" /></svg>