<?xml version="1.0" standalone="no"?><!DOCTYPE svg PUBLIC "-//W3C//DTD SVG 1.1//EN" "http://www.w3.org/Graphics/SVG/1.1/DTD/svg11.dtd"><svg class="icon" width="16px" height="16.00px" viewBox="0 0 1024 1024" version="1.1" xmlns="http://www.w3.org/2000/svg"><path fill="#2c2c2c" d="M638.528742 554.63196c53.411467-41.343617 87.806835-106.070804 87.806835-178.841178 0-124.836193-101.201913-226.037083-226.041176-226.037083-124.833123 0-226.035036 101.20089-226.035036 226.037083 0 72.9208 34.538631 137.764644 88.138386 179.097004C144.501068 623.790062 168.624489 860.624049 168.624489 860.624049l62.927191 0c0 0-4.672416-256.831436 265.442558-258.83507 1.099031 0.016373 2.197038 0.041956 3.299139 0.041956 1.073448 0 2.139733-0.025583 3.208065-0.039909 1.267876 0.010233 2.52859 0.013303 3.808746 0.033769 288.391223 4.676509 283.59601 258.800277 283.59601 258.800277l65.590857 0C856.498078 860.624049 876.378871 623.218034 638.528742 554.63196L638.528742 554.63196zM500.287237 536.478508c-88.74009 0-160.680563-71.937402-160.680563-160.677493 0-88.741114 71.940472-160.681586 160.680563-160.681586 88.745207 0 160.680563 71.940472 160.680563 160.681586C660.9678 464.541105 589.032444 536.478508 500.287237 536.478508L500.287237 536.478508z" /></svg>